<?xml version="1.0" encoding="utf-8"?>
<!-- Generator: Adobe Illustrator 21.0.2, SVG Export Plug-In . SVG Version: 6.00 Build 0)  -->
<svg version="1.1" id="Livello_1" xmlns="http://www.w3.org/2000/svg" xmlns:xlink="http://www.w3.org/1999/xlink" x="0px" y="0px"
	 viewBox="0 0 141.7 141.7" style="enable-background:new 0 0 141.7 141.7;" xml:space="preserve">
<style type="text/css">
	.st0{fill:#FFFFFF;}
</style>
<g id="Livello_107">
	<path class="st0" d="M57.2,63.3L20.9,99.6c-4.6,4.6-7.1,10.7-7.1,17.3c0,6.5,2.5,12.7,7.2,17.3c4.6,4.6,10.7,7.1,17.3,7.1h0
		c6.5,0,12.6-2.5,17.3-7.1l36.4-36.4c7.5-7.5,9.3-18.9,4.6-28.2l-8,8c1,4.7-0.4,9.6-3.8,13l-37.3,37.3l0,0c-2.7,2.3-6,3.6-9.5,3.6
		c-3.8,0-7.3-1.5-9.9-4.1c-2.7-2.7-4.1-6.3-4.1-10.1c0-3.5,1.3-6.8,3.6-9.4l0,0l0.5-0.5c0.1-0.1,0.1-0.1,0.2-0.2c0,0,0,0,0.1-0.1
		l0.1-0.1l36.4-36.4c2.7-2.7,6.2-4.1,10-4.1c1,0,1.9,0.1,2.9,0.3l8-8c-3.4-1.7-7.1-2.6-10.9-2.6C68,56.1,61.8,58.7,57.2,63.3
		 M127.8,24.3c0-6.5-2.5-12.6-7.2-17.3c-4.6-4.6-10.7-7.2-17.3-7.2c-6.5,0-12.6,2.5-17.3,7.2L49.8,43.4c-7.5,7.5-9.3,18.8-4.6,28.2
		l7.6-7.6c-0.9-4.4,0.4-9,3.3-12.4l0,0l0.5-0.5c0.1-0.1,0.1-0.1,0.2-0.2c0,0,0,0,0.1-0.1l0.1-0.1l36.4-36.4c2.7-2.7,6.2-4.1,10-4.1
		c3.8,0,7.3,1.5,10,4.1c5.5,5.5,5.5,14.5,0,20L76.1,71.6l0,0c-2.7,2.3-6,3.6-9.5,3.6c-1,0-1.9-0.1-2.8-0.3l-7.6,7.6
		c3.4,1.7,7.1,2.6,10.9,2.6c6.5,0,12.7-2.5,17.3-7.1l36.4-36.4C125.3,37,127.8,30.9,127.8,24.3"/>
</g>
<g id="Livello_1_1_">
</g>
</svg>
